<?xml version="1.0" encoding="iso-8859-1"?>
<!-- Generator: Adobe Illustrator 18.0.0, SVG Export Plug-In . SVG Version: 6.00 Build 0)  -->
<!DOCTYPE svg PUBLIC "-//W3C//DTD SVG 1.1//EN" "http://www.w3.org/Graphics/SVG/1.1/DTD/svg11.dtd">
<svg version="1.1" id="Capa_1" xmlns="http://www.w3.org/2000/svg" xmlns:xlink="http://www.w3.org/1999/xlink" x="0px" y="0px"
	 viewBox="0 0 400 400" style="enable-background:new 0 0 400 400;" xml:space="preserve">
<g>
	<path d="M390,183.895h-16.39l-22.197-66.15c-1.367-4.074-5.184-6.819-9.48-6.819h-48.044V87.785
		c0-15.516-12.623-28.14-28.138-28.14H28.138C12.623,59.646,0,72.269,0,87.785v178.663c0,15.515,12.623,28.137,28.138,28.137h19.019
		c0,0.018-0.001,0.036-0.001,0.055c0,25.207,20.506,45.715,45.712,45.715c25.207,0,45.715-20.508,45.715-45.715
		c0-0.018-0.001-0.036-0.001-0.055h137.145c0,0.018-0.001,0.036-0.001,0.055c0,25.207,20.508,45.715,45.716,45.715
		c25.207,0,45.715-20.508,45.715-45.715c0-0.018-0.001-0.036-0.001-0.055h4.708c15.515,0,28.138-12.622,28.138-28.137v-72.554
		C400,188.372,395.523,183.895,390,183.895z M92.867,320.354c-14.178,0-25.712-11.536-25.712-25.715
		c0-14.178,11.534-25.713,25.712-25.713c14.179,0,25.715,11.535,25.715,25.713C118.582,308.819,107.046,320.354,92.867,320.354z
		 M247.594,182.256c0,2.761-2.239,5-5,5H46c-2.761,0-5-2.239-5-5v-66.241c0-2.761,2.239-5,5-5h196.594c2.761,0,5,2.239,5,5V182.256z
		 M293.889,130.926h40.852l17.774,52.969h-58.626V130.926z M321.44,320.354c-14.18,0-25.716-11.536-25.716-25.715
		c0-14.178,11.536-25.713,25.716-25.713c14.179,0,25.715,11.535,25.715,25.713C347.155,308.819,335.62,320.354,321.44,320.354z"/>
	<g>
		<path d="M126.26,130.788c-0.33-0.874-1.167-1.455-2.102-1.455c-0.002,0-0.004,0-0.005,0l-3.785,0.008
			c-0.936,0.003-1.773,0.585-2.1,1.464l-13.156,35.346c-0.256,0.689-0.158,1.46,0.261,2.065c0.42,0.604,1.108,0.964,1.845,0.964
			h3.424c0.938,0,1.777-0.583,2.105-1.462l3.891-10.454h11.371l3.943,10.463c0.329,0.875,1.166,1.454,2.102,1.454h3.428
			c0.005,0,0.009,0,0.014,0c1.24,0,2.246-1.005,2.246-2.246c0-0.363-0.086-0.706-0.24-1.008L126.26,130.788z M119.502,149.564
			l2.785-7.481l2.818,7.481H119.502z"/>
		<path d="M159.474,129.18h-14.228c-1.24,0-2.246,1.005-2.246,2.246v35.293c0,1.241,1.006,2.246,2.246,2.246h14.228
			c11.185,0,20.284-8.914,20.284-19.87C179.758,138.114,170.658,129.18,159.474,129.18z M159.474,161.266h-8.772V136.88h8.772
			c6.938,0,12.583,5.48,12.583,12.216C172.057,155.806,166.412,161.266,159.474,161.266z"/>
	</g>
</g>
<g>
</g>
<g>
</g>
<g>
</g>
<g>
</g>
<g>
</g>
<g>
</g>
<g>
</g>
<g>
</g>
<g>
</g>
<g>
</g>
<g>
</g>
<g>
</g>
<g>
</g>
<g>
</g>
<g>
</g>
</svg>
